<svg xmlns="http://www.w3.org/2000/svg" width="376.9" height="35" viewBox="0 0 376.9 35"><rect class="svg__rect" x="0" y="0" width="66.74" height="35" fill="#31C4F3"/><rect class="svg__rect" x="64.74" y="0" width="312.15999999999997" height="35" fill="#389AD5"/><path class="svg__text" d="M13.95 18.00L13.95 18.00L13.95 17.52Q13.95 16.28 14.39 15.32Q14.83 14.37 15.64 13.86Q16.44 13.35 17.49 13.35Q18.53 13.35 19.34 13.85Q20.14 14.35 20.58 15.29Q21.02 16.23 21.03 17.48L21.03 17.48L21.03 17.96Q21.03 19.21 20.59 20.16Q20.16 21.10 19.35 21.61Q18.55 22.12 17.50 22.12L17.50 22.12Q16.46 22.12 15.65 21.61Q14.84 21.10 14.40 20.17Q13.95 19.23 13.95 18.00ZM15.43 17.46L15.43 17.96Q15.43 19.36 15.98 20.13Q16.53 20.90 17.50 20.90L17.50 20.90Q18.48 20.90 19.01 20.15Q19.54 19.40 19.54 17.96L19.54 17.96L19.54 17.51Q19.54 16.09 19.01 15.34Q18.47 14.58 17.49 14.58L17.49 14.58Q16.53 14.58 15.98 15.33Q15.44 16.09 15.43 17.46L15.43 17.46ZM26.97 22L25.49 22L25.49 13.47L28.75 13.47Q30.18 13.47 31.02 14.21Q31.87 14.96 31.87 16.18L31.87 16.18Q31.87 17.44 31.04 18.13Q30.22 18.83 28.74 18.83L28.74 18.83L26.97 18.83L26.97 22ZM26.97 14.66L26.97 17.64L28.75 17.64Q29.55 17.64 29.96 17.27Q30.38 16.90 30.38 16.19L30.38 16.19Q30.38 15.50 29.96 15.09Q29.53 14.68 28.80 14.66L28.80 14.66L26.97 14.66ZM41.73 22L36.15 22L36.15 13.47L41.69 13.47L41.69 14.66L37.63 14.66L37.63 17.02L41.14 17.02L41.14 18.19L37.63 18.19L37.63 20.82L41.73 20.82L41.73 22ZM47.40 22L45.92 22L45.92 13.47L47.40 13.47L51.22 19.54L51.22 13.47L52.69 13.47L52.69 22L51.21 22L47.40 15.95L47.40 22Z" fill="#FFFFFF"/><path class="svg__text" d="M85.67 22L78.93 22L78.93 13.60L85.52 13.60L85.52 15.44L81.28 15.44L81.28 16.85L85.02 16.85L85.02 18.63L81.28 18.63L81.28 20.17L85.67 20.17L85.67 22ZM92.33 22L89.62 22L92.67 17.75L89.74 13.60L92.42 13.60L94.10 16.02L95.76 13.60L98.33 13.60L95.40 17.66L98.52 22L95.79 22L94.05 19.40L92.33 22ZM105.18 22L102.80 22L102.80 13.60L106.65 13.60Q107.79 13.60 108.63 13.98Q109.47 14.35 109.92 15.06Q110.38 15.76 110.38 16.71L110.38 16.71Q110.38 17.66 109.92 18.35Q109.47 19.05 108.63 19.42Q107.79 19.80 106.65 19.80L106.65 19.80L105.18 19.80L105.18 22ZM105.18 15.47L105.18 17.93L106.50 17.93Q107.23 17.93 107.61 17.61Q107.98 17.29 107.98 16.71L107.98 16.71Q107.98 16.12 107.61 15.80Q107.23 15.47 106.50 15.47L106.50 15.47L105.18 15.47ZM121.52 22L115.13 22L115.13 13.60L117.51 13.60L117.51 20.11L121.52 20.11L121.52 22ZM125.51 17.80L125.51 17.80Q125.51 16.55 126.11 15.55Q126.72 14.56 127.78 14.00Q128.84 13.43 130.17 13.43L130.17 13.43Q131.50 13.43 132.57 14.00Q133.63 14.56 134.24 15.55Q134.84 16.55 134.84 17.80L134.84 17.80Q134.84 19.05 134.24 20.04Q133.63 21.04 132.57 21.60Q131.51 22.17 130.17 22.17L130.17 22.17Q128.84 22.17 127.78 21.60Q126.72 21.04 126.11 20.04Q125.51 19.05 125.51 17.80ZM127.91 17.80L127.91 17.80Q127.91 18.51 128.21 19.05Q128.51 19.60 129.03 19.90Q129.54 20.20 130.17 20.20L130.17 20.20Q130.81 20.20 131.33 19.90Q131.84 19.60 132.14 19.05Q132.44 18.51 132.44 17.80L132.44 17.80Q132.44 17.09 132.14 16.54Q131.84 16 131.33 15.70Q130.81 15.40 130.17 15.40L130.17 15.40Q129.54 15.40 129.02 15.70Q128.51 16 128.21 16.54Q127.91 17.09 127.91 17.80ZM141.95 22L139.57 22L139.57 13.60L143.42 13.60Q144.56 13.60 145.40 13.98Q146.23 14.35 146.69 15.06Q147.15 15.76 147.15 16.71L147.15 16.71Q147.15 17.62 146.72 18.30Q146.29 18.98 145.50 19.36L145.50 19.36L147.31 22L144.77 22L143.25 19.77L141.95 19.77L141.95 22ZM141.95 15.47L141.95 17.93L143.27 17.93Q144.00 17.93 144.37 17.61Q144.75 17.29 144.75 16.71L144.75 16.71Q144.75 16.12 144.37 15.79Q144.00 15.47 143.27 15.47L143.27 15.47L141.95 15.47ZM153.35 22L150.93 22L154.64 13.60L156.98 13.60L160.70 22L158.23 22L157.57 20.37L154.02 20.37L153.35 22ZM155.79 15.93L154.71 18.61L156.87 18.61L155.79 15.93ZM166.64 15.48L164.06 15.48L164.06 13.60L171.58 13.60L171.58 15.48L169.02 15.48L169.02 22L166.64 22L166.64 15.48ZM175.53 17.80L175.53 17.80Q175.53 16.55 176.13 15.55Q176.73 14.56 177.80 14.00Q178.86 13.43 180.19 13.43L180.19 13.43Q181.52 13.43 182.58 14.00Q183.65 14.56 184.25 15.55Q184.86 16.55 184.86 17.80L184.86 17.80Q184.86 19.05 184.25 20.04Q183.65 21.04 182.59 21.60Q181.53 22.17 180.19 22.17L180.19 22.17Q178.86 22.17 177.80 21.60Q176.73 21.04 176.13 20.04Q175.53 19.05 175.53 17.80ZM177.92 17.80L177.92 17.80Q177.92 18.51 178.22 19.05Q178.53 19.60 179.04 19.90Q179.56 20.20 180.19 20.20L180.19 20.20Q180.83 20.20 181.34 19.90Q181.86 19.60 182.16 19.05Q182.46 18.51 182.46 17.80L182.46 17.80Q182.46 17.09 182.16 16.54Q181.86 16 181.34 15.70Q180.83 15.40 180.19 15.40L180.19 15.40Q179.55 15.40 179.04 15.70Q178.53 16 178.22 16.54Q177.92 17.09 177.92 17.80ZM191.97 22L189.59 22L189.59 13.60L193.43 13.60Q194.57 13.60 195.41 13.98Q196.25 14.35 196.71 15.06Q197.16 15.76 197.16 16.71L197.16 16.71Q197.16 17.62 196.74 18.30Q196.31 18.98 195.52 19.36L195.52 19.36L197.33 22L194.79 22L193.26 19.77L191.97 19.77L191.97 22ZM191.97 15.47L191.97 17.93L193.29 17.93Q194.02 17.93 194.39 17.61Q194.76 17.29 194.76 16.71L194.76 16.71Q194.76 16.12 194.39 15.79Q194.02 15.47 193.29 15.47L193.29 15.47L191.97 15.47ZM204.08 18.95L200.87 13.60L203.38 13.60L205.37 16.94L207.37 13.60L209.67 13.60L206.45 18.99L206.45 22L204.08 22L204.08 18.95ZM224.70 22L220.72 22L220.72 13.60L224.70 13.60Q226.08 13.60 227.15 14.12Q228.21 14.63 228.80 15.58Q229.39 16.53 229.39 17.80L229.39 17.80Q229.39 19.07 228.80 20.02Q228.21 20.97 227.15 21.48Q226.08 22 224.70 22L224.70 22ZM223.10 15.50L223.10 20.10L224.60 20.10Q225.68 20.10 226.34 19.49Q226.99 18.88 226.99 17.80L226.99 17.80Q226.99 16.72 226.34 16.11Q225.68 15.50 224.60 15.50L224.60 15.50L223.10 15.50ZM235.54 22L233.11 22L236.82 13.60L239.16 13.60L242.88 22L240.41 22L239.75 20.37L236.20 20.37L235.54 22ZM237.97 15.93L236.89 18.61L239.05 18.61L237.97 15.93ZM248.83 15.48L246.24 15.48L246.24 13.60L253.77 13.60L253.77 15.48L251.20 15.48L251.20 22L248.83 22L248.83 15.48ZM259.55 22L257.13 22L260.84 13.60L263.18 13.60L266.90 22L264.43 22L263.77 20.37L260.22 20.37L259.55 22ZM261.99 15.93L260.91 18.61L263.07 18.61L261.99 15.93ZM279.44 22L277.02 22L280.72 13.60L283.07 13.60L286.78 22L284.32 22L283.65 20.37L280.10 20.37L279.44 22ZM281.88 15.93L280.80 18.61L282.96 18.61L281.88 15.93ZM293.27 22L290.94 22L290.94 13.60L292.89 13.60L296.60 18.07L296.60 13.60L298.93 13.60L298.93 22L296.98 22L293.27 17.52L293.27 22ZM305.51 22L303.08 22L306.79 13.60L309.14 13.60L312.85 22L310.38 22L309.72 20.37L306.17 20.37L305.51 22ZM307.95 15.93L306.86 18.61L309.03 18.61L307.95 15.93ZM323.39 22L317.01 22L317.01 13.60L319.38 13.60L319.38 20.11L323.39 20.11L323.39 22ZM329.94 18.95L326.73 13.60L329.24 13.60L331.23 16.94L333.22 13.60L335.53 13.60L332.31 18.99L332.31 22L329.94 22L329.94 18.95ZM339.03 21.24L339.03 21.24L339.80 19.49Q340.37 19.86 341.11 20.09Q341.86 20.32 342.58 20.32L342.58 20.32Q343.94 20.32 343.95 19.64L343.95 19.64Q343.95 19.28 343.56 19.11Q343.17 18.93 342.30 18.74L342.30 18.74Q341.35 18.53 340.72 18.30Q340.08 18.06 339.63 17.55Q339.17 17.03 339.17 16.16L339.17 16.16Q339.17 15.39 339.59 14.77Q340.01 14.15 340.84 13.79Q341.68 13.43 342.89 13.43L342.89 13.43Q343.71 13.43 344.52 13.62Q345.32 13.80 345.94 14.17L345.94 14.17L345.21 15.93Q344.01 15.28 342.88 15.28L342.88 15.28Q342.17 15.28 341.84 15.49Q341.52 15.70 341.52 16.04L341.52 16.04Q341.52 16.37 341.91 16.54Q342.29 16.71 343.14 16.89L343.14 16.89Q344.10 17.10 344.73 17.33Q345.36 17.56 345.82 18.07Q346.29 18.58 346.29 19.46L346.29 19.46Q346.29 20.21 345.87 20.83Q345.45 21.44 344.61 21.80Q343.77 22.17 342.56 22.17L342.56 22.17Q341.55 22.17 340.58 21.92Q339.62 21.67 339.03 21.24ZM353.24 22L350.86 22L350.86 13.60L353.24 13.60L353.24 22ZM357.83 21.24L357.83 21.24L358.61 19.49Q359.17 19.86 359.91 20.09Q360.66 20.32 361.38 20.32L361.38 20.32Q362.74 20.32 362.75 19.64L362.75 19.64Q362.75 19.28 362.36 19.11Q361.97 18.93 361.10 18.74L361.10 18.74Q360.15 18.53 359.52 18.30Q358.88 18.06 358.43 17.55Q357.97 17.03 357.97 16.16L357.97 16.16Q357.97 15.39 358.39 14.77Q358.81 14.15 359.65 13.79Q360.48 13.43 361.69 13.43L361.69 13.43Q362.52 13.43 363.32 13.62Q364.13 13.80 364.74 14.17L364.74 14.17L364.01 15.93Q362.81 15.28 361.68 15.28L361.68 15.28Q360.97 15.28 360.65 15.49Q360.32 15.70 360.32 16.04L360.32 16.04Q360.32 16.37 360.71 16.54Q361.09 16.71 361.94 16.89L361.94 16.89Q362.90 17.10 363.53 17.33Q364.16 17.56 364.63 18.07Q365.09 18.58 365.09 19.46L365.09 19.46Q365.09 20.21 364.67 20.83Q364.25 21.44 363.41 21.80Q362.57 22.17 361.37 22.17L361.37 22.17Q360.35 22.17 359.39 21.92Q358.43 21.67 357.83 21.24Z" fill="#FFFFFF" x="77.74"/></svg>