<svg xmlns="http://www.w3.org/2000/svg" width="338.66" height="35" viewBox="0 0 338.66 35"><rect class="svg__rect" x="0" y="0" width="66.74" height="35" fill="#31C4F3"/><rect class="svg__rect" x="64.74" y="0" width="273.92" height="35" fill="#389AD5"/><path class="svg__text" d="M13.95 18.00L13.95 18.00L13.95 17.52Q13.95 16.28 14.39 15.32Q14.83 14.37 15.64 13.86Q16.44 13.35 17.49 13.35Q18.53 13.35 19.34 13.85Q20.14 14.35 20.58 15.29Q21.02 16.23 21.03 17.48L21.03 17.48L21.03 17.96Q21.03 19.21 20.59 20.16Q20.16 21.10 19.35 21.61Q18.55 22.12 17.50 22.12L17.50 22.12Q16.46 22.12 15.65 21.61Q14.84 21.10 14.40 20.17Q13.95 19.23 13.95 18.00ZM15.43 17.46L15.43 17.96Q15.43 19.36 15.98 20.13Q16.53 20.90 17.50 20.90L17.50 20.90Q18.48 20.90 19.01 20.15Q19.54 19.40 19.54 17.96L19.54 17.96L19.54 17.51Q19.54 16.09 19.01 15.34Q18.47 14.58 17.49 14.58L17.49 14.58Q16.53 14.58 15.98 15.33Q15.44 16.09 15.43 17.46L15.43 17.46ZM26.97 22L25.49 22L25.49 13.47L28.75 13.47Q30.18 13.47 31.02 14.21Q31.87 14.96 31.87 16.18L31.87 16.18Q31.87 17.44 31.04 18.13Q30.22 18.83 28.74 18.83L28.74 18.83L26.97 18.83L26.97 22ZM26.97 14.66L26.97 17.64L28.75 17.64Q29.55 17.64 29.96 17.27Q30.38 16.90 30.38 16.19L30.38 16.19Q30.38 15.50 29.96 15.09Q29.53 14.68 28.80 14.66L28.80 14.66L26.97 14.66ZM41.73 22L36.15 22L36.15 13.47L41.69 13.47L41.69 14.66L37.63 14.66L37.63 17.02L41.14 17.02L41.14 18.19L37.63 18.19L37.63 20.82L41.73 20.82L41.73 22ZM47.40 22L45.92 22L45.92 13.47L47.40 13.47L51.22 19.54L51.22 13.47L52.69 13.47L52.69 22L51.21 22L47.40 15.95L47.40 22Z" fill="#FFFFFF"/><path class="svg__text" d="M80.72 15.48L78.14 15.48L78.14 13.60L85.66 13.60L85.66 15.48L83.09 15.48L83.09 22L80.72 22L80.72 15.48ZM91.45 22L89.02 22L92.73 13.60L95.08 13.60L98.79 22L96.32 22L95.66 20.37L92.11 20.37L91.45 22ZM93.89 15.93L92.80 18.61L94.96 18.61L93.89 15.93ZM107.49 22L102.95 22L102.95 13.60L107.25 13.60Q108.85 13.60 109.69 14.19Q110.53 14.79 110.53 15.79L110.53 15.79Q110.53 16.39 110.24 16.87Q109.94 17.34 109.40 17.62L109.40 17.62Q110.12 17.87 110.53 18.41Q110.94 18.94 110.94 19.70L110.94 19.70Q110.94 20.80 110.05 21.40Q109.16 22 107.49 22L107.49 22ZM105.30 18.58L105.30 20.28L107.29 20.28Q108.54 20.28 108.54 19.43L108.54 19.43Q108.54 18.58 107.29 18.58L107.29 18.58L105.30 18.58ZM105.30 15.31L105.30 16.94L106.93 16.94Q108.13 16.94 108.13 16.12L108.13 16.12Q108.13 15.31 106.93 15.31L106.93 15.31L105.30 15.31ZM122.04 22L115.65 22L115.65 13.60L118.03 13.60L118.03 20.11L122.04 20.11L122.04 22ZM133.20 22L126.46 22L126.46 13.60L133.05 13.60L133.05 15.44L128.81 15.44L128.81 16.85L132.55 16.85L132.55 18.63L128.81 18.63L128.81 20.17L133.20 20.17L133.20 22ZM143.90 20.93L143.90 20.93L145.20 19.40Q145.87 20.27 146.64 20.27L146.64 20.27Q146.64 20.27 146.65 20.27L146.65 20.27Q147.17 20.27 147.44 19.96Q147.71 19.65 147.71 19.05L147.71 19.05L147.71 15.44L144.80 15.44L144.80 13.60L150.06 13.60L150.06 18.91Q150.06 20.54 149.24 21.36Q148.41 22.17 146.82 22.17L146.82 22.17Q145.89 22.17 145.14 21.85Q144.38 21.53 143.90 20.93ZM154.72 17.80L154.72 17.80Q154.72 16.55 155.32 15.55Q155.93 14.56 156.99 14.00Q158.05 13.43 159.38 13.43L159.38 13.43Q160.71 13.43 161.78 14.00Q162.84 14.56 163.45 15.55Q164.05 16.55 164.05 17.80L164.05 17.80Q164.05 19.05 163.45 20.04Q162.84 21.04 161.78 21.60Q160.72 22.17 159.38 22.17L159.38 22.17Q158.05 22.17 156.99 21.60Q155.93 21.04 155.32 20.04Q154.72 19.05 154.72 17.80ZM157.12 17.80L157.12 17.80Q157.12 18.51 157.42 19.05Q157.72 19.60 158.23 19.90Q158.75 20.20 159.38 20.20L159.38 20.20Q160.02 20.20 160.54 19.90Q161.05 19.60 161.35 19.05Q161.65 18.51 161.65 17.80L161.65 17.80Q161.65 17.09 161.35 16.54Q161.05 16 160.54 15.70Q160.02 15.40 159.38 15.40L159.38 15.40Q158.74 15.40 158.23 15.70Q157.72 16 157.42 16.54Q157.12 17.09 157.12 17.80ZM171.16 22L168.78 22L168.78 13.60L171.16 13.60L171.16 22ZM178.67 22L176.33 22L176.33 13.60L178.29 13.60L182.00 18.07L182.00 13.60L184.33 13.60L184.33 22L182.38 22L178.67 17.52L178.67 22ZM197.88 22L195.45 22L199.16 13.60L201.51 13.60L205.22 22L202.75 22L202.09 20.37L198.54 20.37L197.88 22ZM200.32 15.93L199.23 18.61L201.39 18.61L200.32 15.93ZM211.71 22L209.38 22L209.38 13.60L211.33 13.60L215.04 18.07L215.04 13.60L217.37 13.60L217.37 22L215.42 22L211.71 17.52L211.71 22ZM226.50 22L222.53 22L222.53 13.60L226.50 13.60Q227.88 13.60 228.95 14.12Q230.02 14.63 230.61 15.58Q231.20 16.53 231.20 17.80L231.20 17.80Q231.20 19.07 230.61 20.02Q230.02 20.97 228.95 21.48Q227.88 22 226.50 22L226.50 22ZM224.91 15.50L224.91 20.10L226.41 20.10Q227.49 20.10 228.14 19.49Q228.79 18.88 228.79 17.80L228.79 17.80Q228.79 16.72 228.14 16.11Q227.49 15.50 226.41 15.50L226.41 15.50L224.91 15.50ZM245.28 22L242.90 22L242.90 13.60L245.28 13.60L245.28 22ZM252.78 22L250.45 22L250.45 13.60L252.41 13.60L256.12 18.07L256.12 13.60L258.44 13.60L258.44 22L256.49 22L252.78 17.52L252.78 22ZM263.02 21.24L263.02 21.24L263.80 19.49Q264.36 19.86 265.10 20.09Q265.85 20.32 266.57 20.32L266.57 20.32Q267.93 20.32 267.94 19.64L267.94 19.64Q267.94 19.28 267.55 19.11Q267.16 18.93 266.29 18.74L266.29 18.74Q265.34 18.53 264.71 18.30Q264.07 18.06 263.62 17.55Q263.16 17.03 263.16 16.16L263.16 16.16Q263.16 15.39 263.58 14.77Q264.00 14.15 264.84 13.79Q265.67 13.43 266.88 13.43L266.88 13.43Q267.71 13.43 268.51 13.62Q269.32 13.80 269.93 14.17L269.93 14.17L269.20 15.93Q268.00 15.28 266.87 15.28L266.87 15.28Q266.16 15.28 265.84 15.49Q265.51 15.70 265.51 16.04L265.51 16.04Q265.51 16.37 265.90 16.54Q266.28 16.71 267.13 16.89L267.13 16.89Q268.09 17.10 268.72 17.33Q269.35 17.56 269.81 18.07Q270.28 18.58 270.28 19.46L270.28 19.46Q270.28 20.21 269.86 20.83Q269.44 21.44 268.60 21.80Q267.76 22.17 266.56 22.17L266.56 22.17Q265.54 22.17 264.58 21.92Q263.62 21.67 263.02 21.24ZM277.23 22L274.85 22L274.85 13.60L277.23 13.60L277.23 22ZM281.98 17.80L281.98 17.80Q281.98 16.54 282.58 15.54Q283.17 14.55 284.24 13.99Q285.31 13.43 286.65 13.43L286.65 13.43Q287.83 13.43 288.77 13.83Q289.71 14.22 290.33 14.97L290.33 14.97L288.82 16.33Q287.97 15.40 286.80 15.40L286.80 15.40Q286.78 15.40 286.78 15.40L286.78 15.40Q285.70 15.40 285.04 16.06Q284.38 16.71 284.38 17.80L284.38 17.80Q284.38 18.50 284.68 19.04Q284.98 19.59 285.52 19.89Q286.06 20.20 286.75 20.20L286.75 20.20Q287.44 20.20 288.04 19.93L288.04 19.93L288.04 17.62L290.13 17.62L290.13 21.10Q289.41 21.61 288.48 21.89Q287.55 22.17 286.61 22.17L286.61 22.17Q285.29 22.17 284.23 21.61Q283.17 21.05 282.58 20.05Q281.98 19.06 281.98 17.80ZM297.51 22L295.13 22L295.13 13.60L297.51 13.60L297.51 16.76L300.75 16.76L300.75 13.60L303.12 13.60L303.12 22L300.75 22L300.75 18.72L297.51 18.72L297.51 22ZM310.07 15.48L307.49 15.48L307.49 13.60L315.01 13.60L315.01 15.48L312.45 15.48L312.45 22L310.07 22L310.07 15.48ZM318.80 21.24L318.80 21.24L319.58 19.49Q320.14 19.86 320.88 20.09Q321.63 20.32 322.35 20.32L322.35 20.32Q323.72 20.32 323.72 19.64L323.72 19.64Q323.72 19.28 323.33 19.11Q322.94 18.93 322.07 18.74L322.07 18.74Q321.13 18.53 320.49 18.30Q319.85 18.06 319.40 17.55Q318.95 17.03 318.95 16.16L318.95 16.16Q318.95 15.39 319.36 14.77Q319.78 14.15 320.62 13.79Q321.45 13.43 322.66 13.43L322.66 13.43Q323.49 13.43 324.29 13.62Q325.10 13.80 325.71 14.17L325.71 14.17L324.98 15.93Q323.78 15.28 322.65 15.28L322.65 15.28Q321.94 15.28 321.62 15.49Q321.30 15.70 321.30 16.04L321.30 16.04Q321.30 16.37 321.68 16.54Q322.06 16.71 322.91 16.89L322.91 16.89Q323.87 17.10 324.50 17.33Q325.13 17.56 325.60 18.07Q326.06 18.58 326.06 19.46L326.06 19.46Q326.06 20.21 325.64 20.83Q325.22 21.44 324.38 21.80Q323.54 22.17 322.34 22.17L322.34 22.17Q321.32 22.17 320.36 21.92Q319.40 21.67 318.80 21.24Z" fill="#FFFFFF" x="77.74"/></svg>